<svg width="119" height="154" viewBox="0 0 119 154" fill="none" xmlns="http://www.w3.org/2000/svg">
<path d="M72.1744 86.8472C70.8161 87.1514 69.4931 87.715 68.2875 88.5024C65.1467 90.5037 63.3194 93.3604 64.2064 94.8826C65.0933 96.4047 68.3584 96.0154 71.4992 94.0141C72.721 93.2545 73.8063 92.2837 74.6885 91.1618C75.0979 90.6197 75.1714 89.9442 74.8761 89.4393L73.7239 87.4619C73.4308 86.9554 72.8227 86.7145 72.1744 86.8472Z" fill="#D5D6DB"/>
<path d="M64.2874 59.8541C63.3025 60.0749 62.343 60.4837 61.4688 61.0547C59.1919 62.5055 57.8662 64.5769 58.5088 65.6797C59.1514 66.7825 61.5198 66.5 63.7964 65.0493C64.6823 64.4983 65.4693 63.794 66.1091 62.9803C66.4055 62.5874 66.4587 62.0981 66.2447 61.732L65.4104 60.3002C65.1981 59.933 64.7575 59.758 64.2874 59.8541Z" fill="#D5D6DB"/>
<path d="M51.4732 60.9845C51.254 60.9601 51.0201 61.0185 50.8174 61.148L45.4692 64.5562C45.0218 64.8404 44.8428 65.3878 45.0698 65.779C45.1217 65.8686 45.1927 65.9451 45.2789 66.0041L58.4606 75.0891L76.294 63.7244L51.4732 60.9845Z" fill="#029BC5"/>
<path d="M107.85 59.6999L59.3182 90.2521L30.6055 101.677L15.9623 104.588L14.3514 101.851L95.2465 51.9044C97.6573 50.4095 100.343 49.4919 103.032 49.2448C104.209 49.143 105.372 49.1821 106.493 49.3609C107.487 49.5116 108.43 49.8023 109.294 50.2244C110.258 50.7027 112.092 50.7578 112.687 51.7106C112.689 51.7091 114.091 56.0835 107.85 59.6999Z" fill="#E1E6E9"/>
<path d="M59.9615 86.2095L38.9662 119.679C38.704 120.15 38.8597 120.676 39.3135 120.855C39.5921 120.965 39.933 120.922 40.2194 120.74L45.5634 117.35C46.5913 116.697 47.5014 115.869 48.2375 114.915L88.9539 67.0462L59.9615 86.2095Z" fill="#029BC5"/>
<path d="M6.9819 85.092C6.63167 84.9723 6.21489 85.0344 5.86306 85.2584L1.44557 88.0718C0.843651 88.4549 0.603801 89.1913 0.909662 89.717C0.967938 89.8169 1.04364 89.9049 1.13437 89.9773L13.5111 99.8897L26.5241 91.7616L6.9819 85.092Z" fill="#029BC5"/>
<path d="M17.6595 101.677L10.998 111.006C10.9004 111.14 10.9233 111.308 11.0493 111.382C11.1401 111.435 11.2641 111.425 11.3649 111.358L15.4932 108.742C15.5252 108.721 15.5543 108.696 15.5783 108.667L25.3118 96.832L17.6595 101.677Z" fill="#029BC5"/>
<path d="M105.697 49.7631C104.542 49.5777 103.345 49.5381 102.132 49.6447C100.951 51.2958 100.196 53.1505 99.9427 55.0239C99.9241 55.4003 100.228 55.6711 100.62 55.6289C100.743 55.6157 100.864 55.5728 100.973 55.504L108.581 50.6597C107.692 50.2211 106.72 49.9193 105.697 49.7631Z" fill="#029BC5"/>
<path d="M89.1174 58.6712L94.0844 55.5343L98.711 63.4033L93.744 66.5403L89.1174 58.6712Z" fill="#D5D6DB"/>
<path d="M85.9919 61.7834C85.3934 62.1626 85.1541 62.8914 85.458 63.4111L85.9503 64.2531C86.2741 64.7595 87.0134 64.8486 87.6017 64.4519C88.1615 64.0741 88.387 63.3874 88.1172 62.8804L87.6249 62.0384C87.3213 61.5192 86.5904 61.4049 85.9919 61.7834Z" fill="#3A556A"/>
<path d="M81.5275 64.5559C80.929 64.9351 80.6897 65.6639 80.9936 66.1836L81.4859 67.0255C81.8097 67.532 82.549 67.6211 83.1373 67.2244C83.6971 66.8466 83.9226 66.1599 83.6528 65.6529L83.1605 64.8109C82.8566 64.2918 82.1258 64.1775 81.5275 64.5559Z" fill="#3A556A"/>
<path d="M77.0616 67.3293C76.4637 67.7089 76.2254 68.4368 76.529 68.9561L77.0213 69.798C77.3451 70.3045 78.0844 70.3936 78.6727 69.9969C79.2325 69.6191 79.458 68.9324 79.1882 68.4254L78.6959 67.5835C78.392 67.0638 77.6604 66.95 77.0616 67.3293Z" fill="#3A556A"/>
<path d="M72.5973 70.1016C71.9994 70.4813 71.7611 71.2092 72.0647 71.7285L72.557 72.5705C72.8808 73.0769 73.6201 73.166 74.2084 72.7693C74.7682 72.3915 74.9937 71.7048 74.7239 71.1978L74.2316 70.3558C73.9274 69.8363 73.1959 69.7225 72.5973 70.1016Z" fill="#3A556A"/>
<path d="M68.1334 72.8743C67.5352 73.2541 67.2967 73.9823 67.6005 74.5018L68.0931 75.3442C68.3967 75.8634 69.128 75.9772 69.7264 75.5982C70.3247 75.2192 70.5636 74.491 70.26 73.9717L69.7674 73.1294C69.4645 72.6096 68.7335 72.4952 68.1347 72.8735C68.1342 72.8738 68.1339 72.874 68.1334 72.8743Z" fill="#3A556A"/>
<path d="M63.669 75.6468C63.0708 76.0266 62.8323 76.7548 63.1361 77.2743L63.6287 78.1166C63.9323 78.6359 64.6636 78.7496 65.2619 78.3706C65.8603 77.9916 66.0992 77.2635 65.7956 76.7442L65.303 75.9019C65 75.3821 64.269 75.2676 63.6703 75.646C63.6698 75.6463 63.6693 75.6466 63.669 75.6468Z" fill="#3A556A"/>
<path d="M59.2044 78.4193C58.6062 78.7991 58.3677 79.5273 58.6714 80.0468L59.164 80.8891C59.4685 81.4079 60.2001 81.5205 60.7978 81.141C61.3945 80.7621 61.6329 80.0355 61.3306 79.5169L60.838 78.6745C60.5345 78.1549 59.8033 78.0406 59.2044 78.4193Z" fill="#3A556A"/>
<path d="M54.7398 81.1918C54.1416 81.5716 53.9031 82.2998 54.2068 82.8193L54.6994 83.6616C55.0039 84.1804 55.7355 84.293 56.3332 83.9135C56.9299 83.5347 57.1683 82.808 56.866 82.2894L56.3734 81.447C56.0699 80.9274 55.3387 80.8131 54.7398 81.1918Z" fill="#3A556A"/>
<path d="M50.2755 83.9642C49.6773 84.344 49.4388 85.0722 49.7426 85.5917L50.2351 86.434C50.5396 86.9528 51.2712 87.0654 51.8689 86.6859C52.4656 86.3071 52.704 85.5804 52.4017 85.0618L51.9092 84.2195C51.6054 83.7 50.8741 83.5857 50.2755 83.9642Z" fill="#3A556A"/>
<path d="M45.8097 86.7374C45.2113 87.1164 44.9724 87.8446 45.2761 88.3639L45.2767 88.365L45.7693 89.2073C46.0737 89.7261 46.8054 89.8387 47.4031 89.4592C47.9998 89.0803 48.2382 88.3537 47.9359 87.835L47.4433 86.9927C47.1398 86.473 46.4086 86.3587 45.8097 86.7374Z" fill="#3A556A"/>
<path d="M41.3465 89.5091C40.7481 89.8881 40.5092 90.6163 40.8129 91.1355L40.8135 91.1366L41.3061 91.9789C41.6106 92.4977 42.3422 92.6103 42.9399 92.2308C43.5366 91.852 43.775 91.1253 43.4728 90.6067L42.9802 89.7644C42.6764 89.2449 41.9451 89.1306 41.3465 89.5091Z" fill="#3A556A"/>
</svg>
